<?xml version="1.0" encoding="UTF-8" standalone="no"?>
<svg
   xmlns:dc="http://purl.org/dc/elements/1.1/"
   xmlns:cc="http://creativecommons.org/ns#"
   xmlns:rdf="http://www.w3.org/1999/02/22-rdf-syntax-ns#"
   xmlns:svg="http://www.w3.org/2000/svg"
   xmlns="http://www.w3.org/2000/svg"
   xmlns:sodipodi="http://sodipodi.sourceforge.net/DTD/sodipodi-0.dtd"
   xmlns:inkscape="http://www.inkscape.org/namespaces/inkscape"
   inkscape:version="1.0 (4035a4fb49, 2020-05-01)"
   sodipodi:docname="titlebutton-close-dark@2.svg"
   id="svg8"
   style="enable-background:new"
   version="1.1"
   height="32"
   width="32">
  <metadata
     id="metadata14">
    <rdf:RDF>
      <cc:Work
         rdf:about="">
        <dc:format>image/svg+xml</dc:format>
        <dc:type
           rdf:resource="http://purl.org/dc/dcmitype/StillImage" />
        <dc:title></dc:title>
      </cc:Work>
    </rdf:RDF>
  </metadata>
  <defs
     id="defs12" />
  <sodipodi:namedview
     inkscape:document-rotation="0"
     inkscape:current-layer="svg8"
     inkscape:window-maximized="1"
     inkscape:window-y="0"
     inkscape:window-x="0"
     inkscape:cy="16"
     inkscape:cx="16"
     inkscape:zoom="26.125"
     showgrid="true"
     id="namedview10"
     inkscape:window-height="1017"
     inkscape:window-width="1920"
     inkscape:pageshadow="2"
     inkscape:pageopacity="0"
     guidetolerance="10"
     gridtolerance="10"
     objecttolerance="10"
     borderopacity="1"
     bordercolor="#666666"
     pagecolor="#ffffff">
    <inkscape:grid
       id="grid830"
       type="xygrid" />
  </sodipodi:namedview>
  <path
     style="opacity:1;fill:#fffefe;fill-opacity:1;stroke:none;stroke-width:4.275;stroke-linecap:round;stroke-linejoin:round;stroke-miterlimit:4;stroke-dasharray:none;stroke-opacity:1;enable-background:new"
     d="m 9.954237,9.977147 c -0.8373382,0.837259 -0.8373382,2.18538 0,3.022853 l 3.022881,3.022852 -3.022881,3.022853 c -0.8373382,0.837473 -0.8373382,2.185594 0,3.022854 0.837338,0.83747 2.185543,0.83747 3.022881,0 L 16,19.045705 l 3.022883,3.022854 c 0.837338,0.837472 2.185542,0.837472 3.022878,0 0.837341,-0.83726 0.837341,-2.185381 0,-3.022854 L 19.022883,16.022852 22.045761,13 c 0.837341,-0.837473 0.837341,-2.185594 0,-3.022853 -0.837336,-0.837472 -2.185541,-0.837472 -3.022878,0 L 16,13 12.977118,9.977147 c -0.837338,-0.837472 -2.185543,-0.837472 -3.022881,0 z"
     id="path4"
     inkscape:connector-curvature="0" />
</svg>
