<?xml version="1.0" encoding="UTF-8" standalone="no"?>
<svg
   xmlns:dc="http://purl.org/dc/elements/1.1/"
   xmlns:cc="http://creativecommons.org/ns#"
   xmlns:rdf="http://www.w3.org/1999/02/22-rdf-syntax-ns#"
   xmlns:svg="http://www.w3.org/2000/svg"
   xmlns="http://www.w3.org/2000/svg"
   xmlns:sodipodi="http://sodipodi.sourceforge.net/DTD/sodipodi-0.dtd"
   xmlns:inkscape="http://www.inkscape.org/namespaces/inkscape"
   width="14"
   height="14"
   version="1.1"
   style="enable-background:new"
   id="svg8"
   sodipodi:docname="titlebutton-close.svg"
   inkscape:version="1.0.1 (3bc2e813f5, 2020-09-07)"
   viewBox="0 0 14 14">
  <metadata
     id="metadata14">
    <rdf:RDF>
      <cc:Work
         rdf:about="">
        <dc:format>image/svg+xml</dc:format>
        <dc:type
           rdf:resource="http://purl.org/dc/dcmitype/StillImage" />
        <dc:title />
      </cc:Work>
    </rdf:RDF>
  </metadata>
  <defs
     id="defs12" />
  <sodipodi:namedview
     pagecolor="#ffffff"
     bordercolor="#666666"
     borderopacity="1"
     objecttolerance="10"
     gridtolerance="10"
     guidetolerance="10"
     inkscape:pageopacity="0"
     inkscape:pageshadow="2"
     inkscape:window-width="1481"
     inkscape:window-height="998"
     id="namedview10"
     showgrid="false"
     inkscape:zoom="51.812501"
     inkscape:cx="7"
     inkscape:cy="5.4559708"
     inkscape:window-x="144"
     inkscape:window-y="105"
     inkscape:window-maximized="0"
     inkscape:current-layer="svg8"
     viewbox-width="16"
     viewbox-height="16"
     inkscape:document-rotation="0" />
  <path
     style="fill:#926653;fill-opacity:1;fill-rule:evenodd;stroke:none;stroke-width:1"
     d="M 7.0000614,14 C 10.86599,14 14,10.866 14,7 14,3.1340001 10.86599,1.75e-7 7.0000614,1.75e-7 3.1340188,1.75e-7 0,3.1340001 0,7 c 0,3.866 3.1340188,7 7.0000614,7"
     id="path2"
     inkscape:connector-curvature="0" />
  <g
     id="g817"
     transform="matrix(0.90402363,0,0,0.93842501,-0.20988003,-0.79860263)"
     style="fill:#bc6d4c;fill-opacity:1">
    <path
       inkscape:connector-curvature="0"
       id="path4"
       d="m 8.0000702,15.428571 c 4.1026068,0 7.4284938,-3.18946 7.4284938,-7.1235978 0,-3.9342482 -3.325887,-7.123489 -7.4284938,-7.123489 -4.1027586,0 -7.42864878,3.1892408 -7.42864878,7.123489 0,3.9341378 3.32589018,7.1235978 7.42864878,7.1235978"
       style="fill:#bc6d4c;fill-opacity:1;fill-rule:evenodd;stroke:none;stroke-width:1.11914" />
  </g>
</svg>
